<svg xmlns="http://www.w3.org/2000/svg" width="1102.856" height="963.797" viewBox="0 0 1102.856 963.797">
  <defs>
    <style>
      .cls-1 {
        fill: #f7edd6;
      }

      .cls-2 {
        fill: #faf8f2;
      }

      .cls-3 {
        fill: #c8c7d8;
      }

      .cls-4 {
        fill: #fddecd;
      }

      .cls-5 {
        fill: #627298;
      }

      .cls-6 {
        fill: #7e8fb7;
      }

      .cls-7 {
        fill: #f8d1a9;
      }

      .cls-8 {
        fill: #f5daa3;
      }

      .cls-9 {
        fill: #f2d2c0;
      }

      .cls-10 {
        fill: #9e9cb6;
      }

      .cls-11 {
        fill: #fff;
      }

      .cls-12 {
        fill: #ffe7b7;
      }

      .cls-13 {
        fill: #fd8369;
      }
    </style>
  </defs>
  <g id="组_64" data-name="组 64" transform="translate(209.408 37.797)">
    <g id="组_48" data-name="组 48" transform="translate(65 22)">
      <path id="路径_1169" data-name="路径 1169" class="cls-1" d="M453.4,135.656c35.418,44.644,34.98,111.688,42.448,185.907s23.167,155.5-12.105,224.074c-35.418,68.442-121.808,124.217-186.68,104.218S188.256,533.807,134,465.217,14.726,355.508,2.317,302.548,29.672,184.945,83.933,140.3C137.5,96.255,205.809,71.368,276.891,70,346.84,68.9,417.979,91.012,453.4,135.656Z" transform="translate(-264.322 -58.676) rotate(-8)"/>
      <path id="路径_1171" data-name="路径 1171" class="cls-2" d="M424.926,135.3c33.194,44.4,32.783,111.084,39.782,184.9s21.712,154.664-11.345,222.863C420.169,611.138,339.2,666.612,278.406,646.721S176.435,531.3,125.582,463.081,13.8,353.965,2.174,301.291s25.637-116.967,76.49-161.37A283.878,283.878,0,0,1,259.5,70C325.06,68.9,391.732,90.9,424.926,135.3Z" transform="matrix(0.643, 0.766, -0.766, 0.643, 224.123, 107.32)"/>
      <path id="路径_1170" data-name="路径 1170" class="cls-3" d="M468.795,143.166c36.621,49.747,36.168,124.455,43.889,207.158S536.638,523.6,500.168,600.013c-36.621,76.265-125.944,138.416-193.02,116.131S194.648,586.83,138.545,510.4,15.224,388.149,2.395,329.135,30.679,198.089,86.782,148.342A310.5,310.5,0,0,1,286.293,70C358.618,68.776,432.174,93.419,468.795,143.166Z" transform="matrix(0.946, -0.326, 0.326, 0.946, 99.27, 144.34)"/>
    </g>
    <g id="Layer_2" data-name="Layer 2" transform="translate(80.964 463)">
      <g id="Layer_2-2" data-name="Layer 2" transform="translate(0.036)">
        <rect id="矩形_38" data-name="矩形 38" class="cls-4" width="16.235" height="19.337" transform="translate(122.787 424.333)"/>
        <path id="路径_1128" data-name="路径 1128" class="cls-4" d="M427.31,660.724l1.064,15.375,20.184-4.611L440.978,654.1Z" transform="translate(-155.172 -237.493)"/>
        <path id="路径_1129" data-name="路径 1129" class="cls-5" d="M293.862,314.516c2.064,3.713,89.952,216.431,89.952,216.431l-17.534,8.872L262.71,392.506S266.423,310.185,293.862,314.516Z" transform="translate(-95.409 -114.136)"/>
        <path id="路径_1130" data-name="路径 1130" class="cls-6" d="M186.49,317.793V540.841c3.981,2.478,18.42,3.509,21.929,0,1.032-3.5,50.132-223.061,50.132-223.061Z" transform="translate(-67.734 -115.381)"/>
        <path id="路径_1131" data-name="路径 1131" class="cls-4" d="M344.765,126.535c3.93.127,20.33.732,30.113,0s62.755-10.777,69.1-13.095c3.6,3.1,7.235,10.286.8,12.949s-71.016,25.5-77.8,26.9-19.483,2.662-25.235,2.229S344.765,126.535,344.765,126.535Z" transform="translate(-123.395 -41.188)"/>
        <path id="路径_1132" data-name="路径 1132" class="cls-7" d="M274.223,142.817c1.911-13.783,39-19.3,44.75-14.522s5.7,33.979.108,37.737S271.829,160.122,274.223,142.817Z" transform="translate(-99.553 -45.968)"/>
        <path id="路径_1133" data-name="路径 1133" class="cls-8" d="M227.77,116.68c36.5,0,47.769,86.48,38.852,126.7-2.089,9.382-77.557,5.815-81.322,1.395S176.74,116.68,227.77,116.68Z" transform="translate(-66.519 -42.365)"/>
        <path id="路径_1134" data-name="路径 1134" class="cls-4" d="M142.382,171.87c-6.758,3.458-30.9,29.878-31.527,34.362s32.317,46.151,37.667,49.45c6.134.159,8.28-4.872,9.044-9.2-2.911-4.4-14.076-30.744-16.9-34.6,2.433-1.962,18.738-15.012,20.687-18.082S142.382,171.87,142.382,171.87Z" transform="translate(-40.269 -62.403)"/>
        <path id="路径_1135" data-name="路径 1135" class="cls-9" d="M236.32,71c.86,2.191,4.42,32.846,2.847,38.215,1.834,1.675,15.286,3.3,18.025,0-.892-3.516-1.414-19.744-.732-22.846S236.32,71,236.32,71Z" transform="translate(-85.827 -25.779)"/>
        <ellipse id="椭圆_22" data-name="椭圆 22" class="cls-10" cx="18.566" cy="30.024" rx="18.566" ry="30.024" transform="translate(312.27 2.962)"/>
        <ellipse id="椭圆_23" data-name="椭圆 23" class="cls-11" cx="14.503" cy="24.668" rx="14.503" ry="24.668" transform="translate(316.334 8.668)"/>
        <ellipse id="椭圆_24" data-name="椭圆 24" class="cls-4" cx="12.993" cy="10.076" rx="12.993" ry="10.076" transform="translate(316.112 69.785) rotate(-8.86)"/>
        <path id="路径_1136" data-name="路径 1136" class="cls-12" d="M198.451,141.853c8.344,10.866-12.3,41.6-19.432,42.476s-27.432-19.235-26.362-25.872S187.974,128.216,198.451,141.853Z" transform="translate(-55.435 -49.99)"/>
        <ellipse id="椭圆_25" data-name="椭圆 25" class="cls-4" cx="27.814" cy="21.617" rx="27.814" ry="21.617" transform="matrix(0.036, -0.999, 0.999, 0.036, 145.448, 68.717)"/>
        <path id="路径_1137" data-name="路径 1137" class="cls-13" d="M225.055,44.368c-1.019-1.21-2.885-13.21-2.885-15.624,0-9.42,8.465-12.738,13.305-18.139C238.666,7.044,242.169,0,247.01,0c6.694,0,10.082,3.509,13.764,3.535,5.306.038,7.643-2.548,16.56-2.974,5.5-.261,7.783,7.35,7.9,10.414.248,7.4-4.331,22.139-15.509,22.884-.758-2.452-2.216-6.369-2.216-6.369-2.357.586-22.974,4.911-30.381,4.955.146,2.089.382,10.439-4.649,11.535S225.055,44.368,225.055,44.368Z" transform="translate(-80.689)"/>
        <circle id="椭圆_26" data-name="椭圆 26" class="cls-4" cx="6.14" cy="6.14" r="6.14" transform="translate(141.946 39.807)"/>
        <path id="路径_1138" data-name="路径 1138" class="cls-4" d="M169.52,295.417c.166,1.764-.2,8.312,2.643,11.515,3.478,3.917,9.866,8.324,15.452,3.1,4.548-4.261,3.86-8.337,2.548-11.089a19.685,19.685,0,0,0-12.955-10.917C170.151,286.321,169.52,295.417,169.52,295.417Z" transform="translate(-61.573 -104.501)"/>
        <path id="路径_1139" data-name="路径 1139" class="cls-10" d="M217.92,715.917H181.73l7.063-19.337h16.235Z" transform="translate(-66.006 -252.917)"/>
        <path id="路径_1140" data-name="路径 1140" class="cls-10" d="M428.98,685.474V701.7h55.1v-6.191L447.349,679.92Z" transform="translate(-155.778 -246.868)"/>
        <rect id="矩形_39" data-name="矩形 39" class="cls-10" width="6.267" height="32.126" transform="translate(326.925 61.392)"/>
        <path id="路径_1141" data-name="路径 1141" class="cls-4" d="M503.507,50.44A34.443,34.443,0,0,0,506.284,62.9a10.321,10.321,0,0,0,7.318,3.42c8.006,0,14.5-11.2,14.5-25.024,0-7.783-2.064-14.732-5.293-19.324C511.526,23.263,502.985,35.651,503.507,50.44Z" transform="translate(-182.83 -7.977)"/>
        <path id="路径_1142" data-name="路径 1142" class="cls-13" d="M511.11,13c-7.84,0-14.248,10.745-14.49,24.152a12.324,12.324,0,0,0,5.006,1.427c.752-2.452,2.21-6.369,2.21-6.369,1.7.42,12.853,2.777,21.732,4.083C525.039,23.28,518.772,13,511.11,13Z" transform="translate(-180.337 -4.72)"/>
      </g>
    </g>
  </g>
</svg>
